<svg width="24" height="24" viewBox="0 0 24 24" fill="none" xmlns="http://www.w3.org/2000/svg">
<path d="M21 7.99998L19 9.99998L17.5 6.29998C17.3585 5.92131 17.1057 5.5944 16.7747 5.36233C16.4437 5.13026 16.0502 5.00393 15.646 4.99998H8.4C7.9925 4.99062 7.59188 5.10599 7.25177 5.33064C6.91166 5.5553 6.64832 5.8785 6.497 6.25698L5 9.99998L3 7.99998" stroke="black" stroke-linecap="round" stroke-linejoin="round"/>
<path d="M7 14H7.01" stroke="black" stroke-linecap="round" stroke-linejoin="round"/>
<path d="M17 14H17.01" stroke="black" stroke-linecap="round" stroke-linejoin="round"/>
<path d="M19 10H5C3.89543 10 3 10.8954 3 12V16C3 17.1046 3.89543 18 5 18H19C20.1046 18 21 17.1046 21 16V12C21 10.8954 20.1046 10 19 10Z" stroke="black" stroke-linecap="round" stroke-linejoin="round"/>
<path d="M5 18V20" stroke="black" stroke-linecap="round" stroke-linejoin="round"/>
<path d="M19 18V20" stroke="black" stroke-linecap="round" stroke-linejoin="round"/>
</svg>
