<svg width="24" height="24" viewBox="0 0 24 24" fill="none" xmlns="http://www.w3.org/2000/svg">
<path d="M10.8271 16.379C9.77924 16.9085 8.60053 17.1235 7.43323 16.9979C6.26593 16.8722 5.15993 16.4115 4.24873 15.6711C3.33753 14.9308 2.66009 13.9426 2.29816 12.8257C1.93623 11.7088 1.9053 10.5111 2.20909 9.37703L7.62109 10.827C7.09157 9.77918 6.87664 8.60047 7.00225 7.43317C7.12787 6.26586 7.58865 5.15987 8.32898 4.24867C9.06932 3.33747 10.0576 2.66003 11.1744 2.2981C12.2913 1.93617 13.489 1.90524 14.6231 2.20903L13.1731 7.62103C14.2209 7.0915 15.3996 6.87658 16.5669 7.00219C17.7343 7.1278 18.8402 7.58859 19.7514 8.32892C20.6626 9.06926 21.3401 10.0575 21.702 11.1744C22.0639 12.2912 22.0949 13.489 21.7911 14.623L16.3791 13.173C16.9086 14.2209 17.1235 15.3996 16.9979 16.5669C16.8723 17.7342 16.4115 18.8402 15.6712 19.7514C14.9309 20.6626 13.9426 21.34 12.8258 21.702C11.7089 22.0639 10.5111 22.0948 9.37709 21.791L10.8271 16.379Z" stroke="black" stroke-linecap="round" stroke-linejoin="round"/>
<path d="M12 12V12.01" stroke="black" stroke-linecap="round" stroke-linejoin="round"/>
</svg>
