<svg width="24" height="24" viewBox="0 0 24 24" fill="none" xmlns="http://www.w3.org/2000/svg">
<path d="M12 19.5H11.98C11.92 19.5 11.86 19.48 11.8 19.46C11.75 19.44 11.69 19.41 11.65 19.36C11.65 19.36 11.65 19.36 11.64 19.35L4.65 12.35C4.45 12.15 4.45 11.84 4.65 11.64C4.85 11.44 5.16 11.44 5.36 11.64L11.51 17.79V5C11.51 4.72 11.73 4.5 12.01 4.5C12.29 4.5 12.51 4.72 12.51 5V17.79L18.66 11.64C18.86 11.44 19.17 11.44 19.37 11.64C19.57 11.84 19.57 12.15 19.37 12.35L12.37 19.35C12.37 19.35 12.37 19.35 12.36 19.36C12.36 19.36 12.26 19.44 12.21 19.46C12.16 19.48 12.1 19.5 12.03 19.5H12.01H12Z" fill="#172121"/>
</svg>
