<svg width="24" height="24" viewBox="0 0 24 24" fill="none" xmlns="http://www.w3.org/2000/svg">
<path d="M12 4.5H11.98C11.92 4.5 11.86 4.52 11.8 4.54C11.75 4.56 11.69 4.59 11.65 4.64C11.65 4.64 11.65 4.64 11.64 4.65L4.65 11.65C4.45 11.85 4.45 12.16 4.65 12.36C4.85 12.56 5.16 12.56 5.36 12.36L11.51 6.21V19C11.51 19.28 11.73 19.5 12.01 19.5C12.29 19.5 12.51 19.28 12.51 19V6.21L18.66 12.36C18.86 12.56 19.17 12.56 19.37 12.36C19.57 12.16 19.57 11.85 19.37 11.65L12.37 4.65C12.37 4.65 12.37 4.65 12.36 4.64C12.36 4.64 12.26 4.56 12.21 4.54C12.16 4.52 12.1 4.5 12.03 4.5H12.01H12Z" fill="#172121"/>
</svg>
