<svg width="24" height="24" viewBox="0 0 24 24" fill="none" xmlns="http://www.w3.org/2000/svg">
<path d="M4.51001 11.99L4.51001 11.97C4.51001 11.91 4.53001 11.85 4.55001 11.79C4.57001 11.74 4.60001 11.68 4.65001 11.64C4.65001 11.64 4.65001 11.64 4.66001 11.63L11.66 4.64C11.86 4.44 12.17 4.44 12.37 4.64C12.57 4.84 12.57 5.15 12.37 5.35L6.22001 11.5L19.01 11.5C19.29 11.5 19.51 11.72 19.51 12C19.51 12.28 19.29 12.5 19.01 12.5L6.22001 12.5L12.37 18.65C12.57 18.85 12.57 19.16 12.37 19.36C12.17 19.56 11.86 19.56 11.66 19.36L4.66001 12.36C4.66001 12.36 4.66001 12.36 4.65001 12.35C4.65001 12.35 4.57001 12.25 4.55001 12.2C4.53001 12.15 4.51001 12.09 4.51001 12.02L4.51001 12L4.51001 11.99Z" fill="#172121"/>
</svg>
