<svg width="24" height="24" viewBox="0 0 24 24" fill="none" xmlns="http://www.w3.org/2000/svg">
<path d="M19.51 12.01L19.51 12.03C19.51 12.09 19.49 12.15 19.47 12.21C19.45 12.26 19.42 12.32 19.37 12.36C19.37 12.36 19.37 12.36 19.36 12.37L12.36 19.36C12.16 19.56 11.85 19.56 11.65 19.36C11.45 19.16 11.45 18.85 11.65 18.65L17.8 12.5L5.01001 12.5C4.73001 12.5 4.51001 12.28 4.51001 12C4.51001 11.72 4.73001 11.5 5.01001 11.5L17.8 11.5L11.65 5.35C11.45 5.15 11.45 4.84 11.65 4.64C11.85 4.44 12.16 4.44 12.36 4.64L19.36 11.64C19.36 11.64 19.36 11.64 19.37 11.65C19.37 11.65 19.45 11.75 19.47 11.8C19.49 11.85 19.51 11.91 19.51 11.98L19.51 12L19.51 12.01Z" fill="#172121"/>
</svg>
