<svg width="24" height="24" viewBox="0 0 24 24" fill="none" xmlns="http://www.w3.org/2000/svg">
<path d="M9 22.5C7.26 22.5 5.63 21.82 4.4 20.6C3.17 19.38 2.5 17.74 2.5 16C2.5 14.26 3.18 12.63 4.4 11.4L12.82 2.82C13.67 1.97 14.8 1.5 16.01 1.5C17.22 1.5 18.34 1.97 19.19 2.82C20.04 3.67 20.51 4.8 20.51 6C20.51 7.2 20.04 8.33 19.19 9.18L10.78 17.76C9.83 18.71 8.19 18.71 7.24 17.76C6.77 17.29 6.51 16.66 6.51 15.99C6.51 15.32 6.77 14.69 7.24 14.22L15.64 5.65C15.84 5.45 16.15 5.45 16.35 5.65C16.55 5.84 16.55 6.16 16.35 6.36L7.94 14.93C7.65 15.22 7.5 15.59 7.5 15.99C7.5 16.39 7.66 16.77 7.94 17.05C8.5 17.61 9.5 17.61 10.06 17.05L18.47 8.48C19.13 7.82 19.5 6.94 19.5 6C19.5 5.06 19.14 4.19 18.48 3.53C17.18 2.23 14.83 2.23 13.53 3.53L5.11 12.11C4.07 13.15 3.5 14.53 3.5 16C3.5 17.47 4.07 18.85 5.11 19.89C6.15 20.93 7.53 21.5 9 21.5C10.47 21.5 11.84 20.93 12.88 19.9L20.64 11.95C20.83 11.75 21.15 11.75 21.35 11.95C21.55 12.14 21.55 12.46 21.35 12.66L13.6 20.6H13.59V20.62C12.36 21.85 10.74 22.52 9.01 22.52L9 22.5Z" fill="#172121"/>
</svg>
