<svg width="24" height="24" viewBox="0 0 24 24" fill="none" xmlns="http://www.w3.org/2000/svg">
<path d="M3.85331 3.16116C3.65805 2.96589 3.34146 2.96589 3.1462 3.16116C2.95094 3.35642 2.95094 3.673 3.1462 3.86826L11.2926 12.0147L3.17564 20.1317C2.98038 20.327 2.98038 20.6436 3.17564 20.8388C3.3709 21.0341 3.68748 21.0341 3.88275 20.8388L11.9998 12.7218L20.1168 20.8388C20.312 21.0341 20.6286 21.0341 20.8239 20.8388C21.0191 20.6436 21.0191 20.327 20.8239 20.1317L12.7069 12.0147L20.8533 3.86826C21.0486 3.673 21.0486 3.35642 20.8533 3.16116C20.658 2.96589 20.3415 2.96589 20.1462 3.16116L11.9998 11.3076L3.85331 3.16116Z" fill="#172121"/>
</svg>
