<svg width="24" height="24" viewBox="0 0 24 24" fill="none" xmlns="http://www.w3.org/2000/svg">
<path d="M2.5 4C2.5 3.17614 3.17614 2.5 4 2.5H14C14.8239 2.5 15.5 3.17614 15.5 4C15.5 4.27614 15.7239 4.5 16 4.5C16.2761 4.5 16.5 4.27614 16.5 4C16.5 2.62386 15.3761 1.5 14 1.5H4C2.62386 1.5 1.5 2.62386 1.5 4V14C1.5 15.3761 2.62386 16.5 4 16.5C4.27614 16.5 4.5 16.2761 4.5 16C4.5 15.7239 4.27614 15.5 4 15.5C3.17614 15.5 2.5 14.8239 2.5 14V4Z" fill="#172121"/>
<path fill-rule="evenodd" clip-rule="evenodd" d="M10 7.5C8.61929 7.5 7.5 8.61929 7.5 10V20C7.5 21.3807 8.61929 22.5 10 22.5H20C21.3807 22.5 22.5 21.3807 22.5 20V10C22.5 8.61929 21.3807 7.5 20 7.5H10ZM8.5 10C8.5 9.17157 9.17157 8.5 10 8.5H20C20.8284 8.5 21.5 9.17157 21.5 10V20C21.5 20.8284 20.8284 21.5 20 21.5H10C9.17157 21.5 8.5 20.8284 8.5 20V10Z" fill="#172121"/>
</svg>
