<svg width="24" height="24" viewBox="0 0 24 24" fill="none" xmlns="http://www.w3.org/2000/svg">
<path fill-rule="evenodd" clip-rule="evenodd" d="M8.5 4C8.5 3.66262 8.67373 3.28338 8.97855 2.97855C9.28338 2.67373 9.66262 2.5 10 2.5H14C14.3374 2.5 14.7166 2.67373 15.0214 2.97855C15.3263 3.28338 15.5 3.66262 15.5 4V5.5H8.5V4ZM7.5 5.5V4C7.5 3.33738 7.82627 2.71662 8.27145 2.27145C8.71662 1.82627 9.33738 1.5 10 1.5H14C14.6626 1.5 15.2834 1.82627 15.7286 2.27145C16.1737 2.71662 16.5 3.33738 16.5 4V5.5H19H21C21.2761 5.5 21.5 5.72386 21.5 6C21.5 6.27614 21.2761 6.5 21 6.5H19.5V20C19.5 20.6626 19.1737 21.2834 18.7286 21.7286C18.2834 22.1737 17.6626 22.5 17 22.5H7C6.33738 22.5 5.71662 22.1737 5.27145 21.7286C4.82627 21.2834 4.5 20.6626 4.5 20V6.5H3C2.72386 6.5 2.5 6.27614 2.5 6C2.5 5.72386 2.72386 5.5 3 5.5H5H7.5ZM16 6.5H8H5.5V20C5.5 20.3374 5.67373 20.7166 5.97855 21.0214C6.28338 21.3263 6.66262 21.5 7 21.5H17C17.3374 21.5 17.7166 21.3263 18.0214 21.0214C18.3263 20.7166 18.5 20.3374 18.5 20V6.5H16Z" fill="#172121"/>
</svg>
