<svg width="24" height="24" viewBox="0 0 24 24" fill="none" xmlns="http://www.w3.org/2000/svg">
<path d="M12.5 3C12.5 2.72386 12.2761 2.5 12 2.5C11.7239 2.5 11.5 2.72386 11.5 3V13.7929L7.35355 9.64645C7.15829 9.45118 6.84171 9.45118 6.64645 9.64645C6.45118 9.84171 6.45118 10.1583 6.64645 10.3536L11.6464 15.3536C11.6944 15.4015 11.7496 15.4377 11.8086 15.4621C11.8667 15.4861 11.9303 15.4996 11.997 15.5L12 15.5L12.003 15.5C12.0697 15.4996 12.1333 15.4861 12.1914 15.4621C12.2504 15.4377 12.3056 15.4015 12.3536 15.3536L17.3536 10.3536C17.5488 10.1583 17.5488 9.84171 17.3536 9.64645C17.1583 9.45118 16.8417 9.45118 16.6464 9.64645L12.5 13.7929V3Z" fill="#172121"/>
<path d="M3 14.5C3.27614 14.5 3.5 14.7239 3.5 15V19C3.5 19.3978 3.65804 19.7794 3.93934 20.0607C4.22064 20.342 4.60218 20.5 5 20.5H19C19.3978 20.5 19.7794 20.342 20.0607 20.0607C20.342 19.7794 20.5 19.3978 20.5 19V15C20.5 14.7239 20.7239 14.5 21 14.5C21.2761 14.5 21.5 14.7239 21.5 15V19C21.5 19.663 21.2366 20.2989 20.7678 20.7678C20.2989 21.2366 19.663 21.5 19 21.5H5C4.33696 21.5 3.70107 21.2366 3.23223 20.7678C2.76339 20.2989 2.5 19.663 2.5 19V15C2.5 14.7239 2.72386 14.5 3 14.5Z" fill="#172121"/>
</svg>
