<svg width="24" height="24" viewBox="0 0 24 24" fill="none" xmlns="http://www.w3.org/2000/svg">
<path d="M2.49885 22.5C2.41885 22.5 2.33885 22.5 2.25885 22.47C2.07885 22.42 1.91885 22.33 1.78885 22.21C1.65885 22.09 1.56885 21.92 1.52885 21.75C1.48885 21.58 1.48885 21.39 1.53885 21.22L2.85885 16.87C2.97885 16.48 3.19885 16.12 3.48885 15.83L14.5789 4.72C14.5789 4.72 14.6189 4.67 14.6389 4.64C14.6589 4.61 14.6889 4.59 14.7189 4.58L16.8289 2.47C17.4589 1.84 18.2889 1.5 19.1789 1.5C20.0689 1.5 20.9089 1.85 21.5289 2.47C22.1489 3.09 22.4989 3.94 22.4989 4.82C22.4989 5.7 22.1489 6.54 21.5289 7.17L19.4189 9.28C19.4189 9.28 19.3789 9.33 19.3589 9.36C19.3389 9.38 19.3089 9.4 19.2789 9.42L8.17885 20.52C7.88885 20.81 7.52885 21.02 7.13885 21.14L2.78885 22.46C2.69885 22.49 2.59885 22.5 2.49885 22.5ZM15.0089 5.71L4.19885 16.53C4.02885 16.7 3.89885 16.92 3.81885 17.15L2.49885 21.5L6.84885 20.18C7.07885 20.11 7.29885 19.98 7.46885 19.81L18.2789 9L14.9989 5.72L15.0089 5.71ZM15.7089 5.01L18.9889 8.29L20.8189 6.46C21.2589 6.02 21.4989 5.44 21.4989 4.82C21.4989 4.2 21.2489 3.61 20.8189 3.18C19.9489 2.31 18.4089 2.31 17.5389 3.18L15.7089 5.01Z" fill="#172121"/>
</svg>
