<svg xmlns="http://www.w3.org/2000/svg" width="946" height="945" fill="none"><g filter="url(#a)"><circle cx="452.9" cy="499.4" r="314.8" fill="url(#b)" transform="rotate(-136 453 499.4)"/></g><g filter="url(#c)"><circle cx="521" cy="434.1" r="264.4" fill="url(#d)" transform="rotate(38 521 434.1)"/></g><g filter="url(#e)"><path fill="url(#f)" fill-opacity=".7" d="M620.8 226.8c39.1 37.6 72.4 122.1 18.5 178.2-54 56-339.3 156.2-378.4 118.6-39-37.7 62.6-250 116.6-306.2 54-56 204.2-28.2 243.3 9.4Z"/></g><defs><linearGradient id="b" x1="732.2" x2="-164.5" y1="333.5" y2="585.8" gradientUnits="userSpaceOnUse"><stop stop-color="#71DBFF"/><stop offset="1" stop-color="#C6FFDE" stop-opacity="0"/></linearGradient><linearGradient id="d" x1="530.2" x2="565.7" y1="158.2" y2="632.2" gradientUnits="userSpaceOnUse"><stop stop-color="#12EB93"/><stop offset="1" stop-color="#83F3EA"/></linearGradient><linearGradient id="f" x1="303.6" x2="474.7" y1="-142" y2="472.5" gradientUnits="userSpaceOnUse"><stop offset=".4" stop-color="#FEFF00"/><stop offset="1" stop-color="#FFCE2B" stop-opacity="0"/></linearGradient><filter id="a" width="809.6" height="809.6" x="48.1" y="94.6" color-interpolation-filters="sRGB" filterUnits="userSpaceOnUse"><feFlood flood-opacity="0" result="BackgroundImageFix"/><feBlend in="SourceGraphic" in2="BackgroundImageFix" result="shape"/><feGaussianBlur result="effect1_foregroundBlur_11522_1903" stdDeviation="45"/></filter><filter id="c" width="629.9" height="629.9" x="206.1" y="119.2" color-interpolation-filters="sRGB" filterUnits="userSpaceOnUse"><feFlood flood-opacity="0" result="BackgroundImageFix"/><feBlend in="SourceGraphic" in2="BackgroundImageFix" result="shape"/><feGaussianBlur result="effect1_foregroundBlur_11522_1903" stdDeviation="25.3"/></filter><filter id="e" width="564.8" height="495.7" x="177.4" y="110.9" color-interpolation-filters="sRGB" filterUnits="userSpaceOnUse"><feFlood flood-opacity="0" result="BackgroundImageFix"/><feBlend in="SourceGraphic" in2="BackgroundImageFix" result="shape"/><feGaussianBlur result="effect1_foregroundBlur_11522_1903" stdDeviation="37.4"/></filter></defs></svg>