<svg width="24" height="24" viewBox="0 0 24 24" fill="none" xmlns="http://www.w3.org/2000/svg">
<path fill-rule="evenodd" clip-rule="evenodd" d="M8.50002 12C8.50002 10.067 10.067 8.49999 12 8.49999C13.933 8.49999 15.5 10.067 15.5 12C15.5 13.933 13.933 15.5 12 15.5C10.067 15.5 8.50002 13.933 8.50002 12ZM12 9.49999C10.6193 9.49999 9.50002 10.6193 9.50002 12C9.50002 13.3807 10.6193 14.5 12 14.5C13.3807 14.5 14.5 13.3807 14.5 12C14.5 10.6193 13.3807 9.49999 12 9.49999Z" fill="#172121"/>
<path fill-rule="evenodd" clip-rule="evenodd" d="M5.74268 6.40137C7.59423 5.16215 9.77204 4.50061 12 4.50061C14.228 4.50061 16.4058 5.16215 18.2573 6.40137C20.1089 7.64059 21.5508 9.40167 22.4002 11.4614C22.4025 11.4669 22.4047 11.4724 22.4068 11.478C22.5318 11.8148 22.5318 12.1852 22.4068 12.522C22.4047 12.5276 22.4025 12.5331 22.4002 12.5386C21.5508 14.5983 20.1089 16.3594 18.2573 17.5986C16.4058 18.8378 14.228 19.4994 12 19.4994C9.77204 19.4994 7.59423 18.8378 5.74268 17.5986C3.89114 16.3594 2.44924 14.5983 1.59978 12.5386C1.59751 12.5331 1.59534 12.5276 1.59327 12.522C1.46826 12.1852 1.46826 11.8148 1.59327 11.478C1.59534 11.4724 1.59751 11.4669 1.59978 11.4614C2.44924 9.40167 3.89114 7.64059 5.74268 6.40137ZM12 5.50061C9.97008 5.50061 7.98586 6.10335 6.29889 7.23241C4.6148 8.35956 3.30267 9.96056 2.52821 11.8331C2.48995 11.9411 2.48995 12.0589 2.52821 12.1669C3.30267 14.0394 4.6148 15.6404 6.29889 16.7676C7.98586 17.8966 9.97008 18.4994 12 18.4994C14.03 18.4994 16.0142 17.8966 17.7011 16.7676C19.3852 15.6404 20.6974 14.0394 21.4718 12.1669C21.5101 12.0589 21.5101 11.9411 21.4718 11.833C20.6974 9.96056 19.3852 8.35956 17.7011 7.23241C16.0142 6.10335 14.03 5.50061 12 5.50061Z" fill="#172121"/>
</svg>
