<svg width="24" height="24" viewBox="0 0 24 24" fill="none" xmlns="http://www.w3.org/2000/svg">
<path fill-rule="evenodd" clip-rule="evenodd" d="M2.35357 1.64645C2.15831 1.45118 1.84173 1.45118 1.64646 1.64645C1.4512 1.84171 1.4512 2.15829 1.64646 2.35355L5.71351 6.4206C3.87965 7.65631 2.44637 9.40833 1.59977 11.4614C1.59751 11.4669 1.59534 11.4724 1.59327 11.478C1.46826 11.8148 1.46826 12.1852 1.59327 12.522C1.59534 12.5276 1.59751 12.5331 1.59977 12.5386C2.21486 14.0303 3.14362 15.3721 4.32302 16.4732C5.50242 17.5743 6.90487 18.4088 8.4352 18.9201C9.96554 19.4314 11.588 19.6076 13.1924 19.4366C14.6723 19.2789 16.105 18.8292 17.4079 18.115L21.6465 22.3536C21.8417 22.5488 22.1583 22.5488 22.3536 22.3536C22.5488 22.1583 22.5488 21.8417 22.3536 21.6464L2.35357 1.64645ZM16.6682 17.3753L14.096 14.8031C13.4858 15.2594 12.7394 15.5067 11.9695 15.5C11.0518 15.492 10.1739 15.1239 9.52501 14.475C8.87608 13.8261 8.50799 12.9482 8.50001 12.0305C8.49332 11.2606 8.74059 10.5143 9.19695 9.90404L6.43525 7.14234C4.68923 8.27113 3.32501 9.90626 2.52821 11.833C2.48995 11.9411 2.48995 12.0589 2.52821 12.167C3.08865 13.5222 3.93339 14.7414 5.00544 15.7423C6.08 16.7455 7.35779 17.5058 8.75209 17.9717C10.1464 18.4375 11.6246 18.598 13.0864 18.4422C14.3374 18.3089 15.5514 17.9466 16.6682 17.3753ZM9.91438 10.6215C9.64184 11.0337 9.49562 11.5208 9.49998 12.0219C9.50567 12.6774 9.76859 13.3044 10.2321 13.7679C10.6956 14.2314 11.3227 14.4943 11.9782 14.5C12.4792 14.5044 12.9663 14.3582 13.3785 14.0856L9.91438 10.6215Z" fill="#172121"/>
<path d="M10.7922 5.57249C13.0132 5.30781 15.2597 5.77731 17.1888 6.90929C19.115 8.03953 20.6189 9.76821 21.4718 11.832C21.5101 11.94 21.5101 12.0578 21.4719 12.1658C21.1219 13.0118 20.6602 13.8071 20.099 14.5305C19.9297 14.7487 19.9693 15.0628 20.1875 15.232C20.4057 15.4013 20.7198 15.3617 20.8891 15.1435C21.5074 14.3466 22.0156 13.4701 22.4002 12.5377L22.4034 12.5298L22.4068 12.521C22.5318 12.1842 22.5318 11.8138 22.4068 11.477C22.4047 11.4715 22.4026 11.466 22.4003 11.4605C21.4649 9.19064 19.8123 7.28929 17.6949 6.04681C15.5775 4.80433 13.1116 4.289 10.6739 4.57951C10.3996 4.61219 10.2039 4.86097 10.2365 5.13517C10.2692 5.40937 10.518 5.60516 10.7922 5.57249Z" fill="#172121"/>
</svg>
