<svg width="25" height="24" viewBox="0 0 25 24" fill="none" xmlns="http://www.w3.org/2000/svg">
<path fill-rule="evenodd" clip-rule="evenodd" d="M4.29706 11.5534C5.09004 9.77258 7.34498 6 12.2002 6C17.0555 6 19.3102 9.77274 20.1031 11.5535C20.2308 11.8405 20.2308 12.1595 20.1031 12.4465C19.3102 14.2273 17.0555 18 12.2002 18C7.34498 18 5.09004 14.2274 4.29706 12.4466C4.16925 12.1595 4.16925 11.8405 4.29706 11.5534ZM12.2002 4C6.09145 4 3.33933 8.78756 2.47 10.7399C2.1116 11.5448 2.1116 12.4552 2.47 13.2601C3.33933 15.2124 6.09145 20 12.2002 20C18.3091 20 21.061 15.2122 21.9302 13.2599C22.2885 12.4552 22.2885 11.5448 21.9302 10.7401C21.061 8.78782 18.3091 4 12.2002 4ZM8.20001 12C8.20001 9.79086 9.99087 8 12.2 8C14.4092 8 16.2 9.79086 16.2 12C16.2 14.2091 14.4092 16 12.2 16C9.99087 16 8.20001 14.2091 8.20001 12ZM12.2 10C12.1716 10 12.1434 10.0006 12.1153 10.0018C12.1702 10.1577 12.2 10.3253 12.2 10.5C12.2 11.3284 11.5284 12 10.7 12C10.5254 12 10.3577 11.9701 10.2018 11.9153C10.2006 11.9434 10.2 11.9716 10.2 12C10.2 13.1046 11.0954 14 12.2 14C13.3046 14 14.2 13.1046 14.2 12C14.2 10.8954 13.3046 10 12.2 10Z" fill="#322D2A"/>
</svg>
