<svg width="24" height="24" viewBox="0 0 24 24" fill="none" xmlns="http://www.w3.org/2000/svg">
<path fill-rule="evenodd" clip-rule="evenodd" d="M6 1.5C5.33696 1.5 4.70107 1.76339 4.23223 2.23223C3.76339 2.70107 3.5 3.33696 3.5 4V20C3.5 20.663 3.76339 21.2989 4.23223 21.7678C4.70107 22.2366 5.33696 22.5 6 22.5H18C18.663 22.5 19.2989 22.2366 19.7678 21.7678C20.2366 21.2989 20.5 20.663 20.5 20V7C20.5 6.86739 20.4473 6.74021 20.3536 6.64645L15.3536 1.64645C15.2598 1.55268 15.1326 1.5 15 1.5H6ZM13.5 2.5H6C5.60218 2.5 5.22064 2.65804 4.93934 2.93934C4.65804 3.22064 4.5 3.60218 4.5 4V20C4.5 20.3978 4.65804 20.7794 4.93934 21.0607C5.22064 21.342 5.60218 21.5 6 21.5H18C18.3978 21.5 18.7794 21.342 19.0607 21.0607C19.342 20.7794 19.5 20.3978 19.5 20V8.5H16C15.337 8.5 14.7011 8.23661 14.2322 7.76777C13.7634 7.29893 13.5 6.66304 13.5 6V2.5ZM19.5 7.5H16C15.6022 7.5 15.2206 7.34196 14.9393 7.06066C14.658 6.77936 14.5 6.39782 14.5 6V2.5H14.7929L19.5 7.20711V7.5Z" fill="#172121"/>
</svg>
