<svg width="24" height="24" viewBox="0 0 24 24" fill="none" xmlns="http://www.w3.org/2000/svg">
<path d="M12.3426 7.53151C11.7607 7.43169 11.1623 7.54105 10.6533 7.84019C10.1443 8.13933 9.75757 8.60897 9.56165 9.16591C9.47001 9.42641 9.18455 9.56329 8.92406 9.47166C8.66356 9.38002 8.52668 9.09456 8.61831 8.83407C8.8926 8.05435 9.43399 7.39686 10.1466 6.97806C10.8592 6.55925 11.697 6.40616 12.5117 6.5459C13.3263 6.68564 14.0653 7.10918 14.5976 7.74152C15.1298 8.37378 15.4211 9.17398 15.42 10.0004C15.4198 11.2656 14.4774 12.1459 13.6973 12.666C13.292 12.9362 12.8903 13.1367 12.5918 13.2694C12.4419 13.336 12.3162 13.3863 12.2269 13.4204C12.1822 13.4374 12.1464 13.4504 12.1212 13.4594L12.0913 13.4699L12.0825 13.4728L12.0788 13.4741L11.92 13C12.0781 13.4743 12.0788 13.4741 12.0788 13.4741C11.8168 13.5614 11.533 13.4201 11.4456 13.1581C11.3584 12.8963 11.4997 12.6133 11.7614 12.5258L11.7659 12.5243L11.7862 12.5172C11.8048 12.5105 11.8336 12.5001 11.8709 12.4859C11.9456 12.4574 12.0543 12.4139 12.1857 12.3556C12.4497 12.2382 12.7979 12.0638 13.1426 11.834C13.8624 11.3541 14.42 10.7346 14.42 9.99999C14.4209 9.40959 14.2128 8.83719 13.8325 8.38552C13.4523 7.93385 12.9245 7.63132 12.3426 7.53151Z" fill="#172121"/>
<path d="M12 16.5C11.7239 16.5 11.5 16.7239 11.5 17C11.5 17.2761 11.7239 17.5 12 17.5H12.01C12.2861 17.5 12.51 17.2761 12.51 17C12.51 16.7239 12.2861 16.5 12.01 16.5H12Z" fill="#172121"/>
<path fill-rule="evenodd" clip-rule="evenodd" d="M1.5 12C1.5 6.20101 6.20101 1.5 12 1.5C17.799 1.5 22.5 6.20101 22.5 12C22.5 17.799 17.799 22.5 12 22.5C6.20101 22.5 1.5 17.799 1.5 12ZM12 2.5C6.75329 2.5 2.5 6.75329 2.5 12C2.5 17.2467 6.75329 21.5 12 21.5C17.2467 21.5 21.5 17.2467 21.5 12C21.5 6.75329 17.2467 2.5 12 2.5Z" fill="#172121"/>
</svg>
