<svg width="24" height="25" viewBox="0 0 24 25" fill="none" xmlns="http://www.w3.org/2000/svg">
<path d="M7 10.5V7.5C7 6.17392 7.52678 4.90215 8.46447 3.96447C9.40215 3.02678 10.6739 2.5 12 2.5C13.3261 2.5 14.5979 3.02678 15.5355 3.96447C16.4732 4.90215 17 6.17392 17 7.5V10.5M13 16.5C13 17.0523 12.5523 17.5 12 17.5C11.4477 17.5 11 17.0523 11 16.5C11 15.9477 11.4477 15.5 12 15.5C12.5523 15.5 13 15.9477 13 16.5ZM5 10.5H19C20.1046 10.5 21 11.3954 21 12.5V20.5C21 21.6046 20.1046 22.5 19 22.5H5C3.89543 22.5 3 21.6046 3 20.5V12.5C3 11.3954 3.89543 10.5 5 10.5Z" stroke="black" stroke-linecap="round" stroke-linejoin="round"/>
</svg>
