<svg width="24" height="24" viewBox="0 0 24 24" fill="none" xmlns="http://www.w3.org/2000/svg">
<path d="M15.6558 6.83559C15.8449 6.83559 16.1673 6.86568 16.6229 6.92585C17.0786 6.98603 17.5772 7.15796 18.1187 7.44165C18.6689 7.71674 19.1675 8.17666 19.6146 8.82141C19.5888 8.8472 19.4641 8.94176 19.2406 9.10509C19.0171 9.25983 18.7678 9.49194 18.4927 9.80142C18.2176 10.1023 17.9769 10.4891 17.7706 10.962C17.5643 11.4262 17.4611 11.9807 17.4611 12.6254C17.4611 13.3647 17.5901 13.9923 17.848 14.5081C18.1144 15.0239 18.4196 15.4408 18.7635 15.7589C19.116 16.0683 19.4254 16.2962 19.6919 16.4423C19.967 16.5884 20.1132 16.6658 20.1304 16.6744C20.1218 16.7088 20.01 17.014 19.7951 17.5899C19.5888 18.1659 19.2449 18.8064 18.7635 19.5113C18.3423 20.1216 17.8866 20.6847 17.3966 21.2005C16.9152 21.7163 16.3349 21.9742 15.6558 21.9742C15.2002 21.9742 14.8262 21.9097 14.534 21.7808C14.2417 21.6432 13.9408 21.51 13.6313 21.381C13.3218 21.2435 12.9049 21.1747 12.3805 21.1747C11.8733 21.1747 11.4478 21.2435 11.1039 21.381C10.7686 21.5186 10.4463 21.6561 10.1368 21.7937C9.83592 21.9312 9.47916 22 9.06652 22C8.43897 22 7.88879 21.7507 7.41597 21.2521C6.94316 20.7535 6.45745 20.156 5.95885 19.4597C5.38288 18.6344 4.88857 17.6286 4.47593 16.4423C4.07189 15.2474 3.86987 14.0438 3.86987 12.8317C3.86987 11.5336 4.11488 10.4462 4.60488 9.56931C5.09489 8.68386 5.72244 8.01762 6.48754 7.5706C7.26123 7.11498 8.06072 6.88717 8.88599 6.88717C9.32442 6.88717 9.73706 6.96024 10.1239 7.10638C10.5107 7.24393 10.8718 7.38577 11.2071 7.53192C11.5509 7.67806 11.8604 7.75113 12.1355 7.75113C12.402 7.75113 12.7115 7.67376 13.0639 7.51902C13.4164 7.36428 13.8118 7.21384 14.2503 7.0677C14.6887 6.91296 15.1572 6.83559 15.6558 6.83559Z" fill="#172121"/>
<path d="M14.9466 5.19794C14.6113 5.60198 14.1901 5.94154 13.6829 6.21663C13.1757 6.48313 12.6943 6.61638 12.2387 6.61638C12.1441 6.61638 12.0538 6.60778 11.9679 6.59059C11.9593 6.5648 11.9507 6.51752 11.9421 6.44874C11.9335 6.37997 11.9292 6.3069 11.9292 6.22953C11.9292 5.71373 12.0409 5.21513 12.2645 4.73372C12.488 4.24371 12.7416 3.83967 13.0253 3.5216C13.3863 3.09177 13.8419 2.73501 14.3921 2.45132C14.9423 2.16763 15.4667 2.01719 15.9653 2C15.9911 2.11176 16.004 2.245 16.004 2.39974C16.004 2.91554 15.9051 3.41844 15.7074 3.90845C15.5097 4.38986 15.2561 4.81969 14.9466 5.19794Z" fill="#172121"/>
</svg>
