<svg width="24" height="24" viewBox="0 0 24 24" fill="none" xmlns="http://www.w3.org/2000/svg">
<path d="M21.8 12.2273C21.8 11.5182 21.7364 10.8364 21.6182 10.1818H12.2V14.05H17.5818C17.35 15.3 16.6455 16.3591 15.5864 17.0682L18.8182 19.5773C20.7091 17.8364 21.8 15.2727 21.8 12.2273Z" fill="#4285F4"/>
<path d="M12.2001 22C14.9001 22 17.1637 21.1045 18.8182 19.5773L15.5864 17.0682C14.691 17.6682 13.5455 18.0227 12.2001 18.0227C9.59547 18.0227 7.39097 16.2636 6.60457 13.9L3.26367 16.4909C4.90917 19.7591 8.29097 22 12.2001 22Z" fill="#34A853"/>
<path d="M6.60457 13.9C6.40457 13.3 6.29085 12.6591 6.29085 12C6.29085 11.3409 6.40445 10.7 6.60445 10.1L3.26355 7.50909C2.58635 8.85909 2.19995 10.3864 2.19995 12C2.19995 13.6136 2.58647 15.1409 3.26367 16.4909L6.60457 13.9Z" fill="#FBBC04"/>
<path d="M12.2001 5.9773C13.6682 5.9773 14.9864 6.4818 16.0228 7.4727L18.891 4.6045C17.1592 2.9909 14.8955 2 12.2001 2C8.29097 2 4.90905 4.24089 3.26355 7.50909L6.60445 10.1C7.39085 7.73639 9.59547 5.9773 12.2001 5.9773Z" fill="#E94235"/>
</svg>
