<svg width="24" height="24" viewBox="0 0 24 24" fill="none" xmlns="http://www.w3.org/2000/svg">
<path fill-rule="evenodd" clip-rule="evenodd" d="M1.5 6.99956C1.5 6.99954 1.5 6.99958 1.5 6.99956V6C1.5 4.61929 2.61929 3.5 4 3.5H20C21.3807 3.5 22.5 4.61929 22.5 6V6.98828C22.5002 6.99578 22.5002 7.00329 22.5 7.01078V18C22.5 19.3807 21.3807 20.5 20 20.5H4C2.61929 20.5 1.5 19.3807 1.5 18V6.99956ZM2.5 6C2.5 5.17157 3.17157 4.5 4 4.5H20C20.8284 4.5 21.5 5.17157 21.5 6V6.72535L12.7646 12.2763L12.7633 12.2771C12.5345 12.4201 12.27 12.496 12.0001 12.496C11.7301 12.496 11.4657 12.4201 11.2368 12.2771L11.2355 12.2763L2.5 6.72527V6ZM21.5 7.91017V18C21.5 18.8284 20.8284 19.5 20 19.5H4C3.17157 19.5 2.5 18.8284 2.5 18V7.9101L10.7019 13.122L10.7046 13.1237C11.0929 13.367 11.5419 13.496 12.0001 13.496C12.4583 13.496 12.9072 13.367 13.2955 13.1237L21.5 7.91017Z" fill="#172121"/>
</svg>
