<svg width="24" height="24" viewBox="0 0 24 24" fill="none" xmlns="http://www.w3.org/2000/svg">
<path d="M15.3536 14.3536C15.5488 14.1583 15.5488 13.8417 15.3536 13.6464C15.1583 13.4512 14.8417 13.4512 14.6464 13.6464L11 17.2929L9.35355 15.6464C9.15829 15.4512 8.84171 15.4512 8.64645 15.6464C8.45118 15.8417 8.45118 16.1583 8.64645 16.3536L10.6464 18.3536C10.8417 18.5488 11.1583 18.5488 11.3536 18.3536L15.3536 14.3536Z" fill="#172121"/>
<path fill-rule="evenodd" clip-rule="evenodd" d="M8 1.5C8.27614 1.5 8.5 1.72386 8.5 2V3.5H15.5V2C15.5 1.72386 15.7239 1.5 16 1.5C16.2761 1.5 16.5 1.72386 16.5 2V3.5H19C20.3807 3.5 21.5 4.61929 21.5 6V20C21.5 21.3807 20.3807 22.5 19 22.5H5C3.61929 22.5 2.5 21.3807 2.5 20V6C2.5 4.61929 3.61929 3.5 5 3.5H7.5V2C7.5 1.72386 7.72386 1.5 8 1.5ZM20.5 6V9.5H3.5V6C3.5 5.17157 4.17157 4.5 5 4.5H7.5V6C7.5 6.27614 7.72386 6.5 8 6.5C8.27614 6.5 8.5 6.27614 8.5 6V4.5H15.5V6C15.5 6.27614 15.7239 6.5 16 6.5C16.2761 6.5 16.5 6.27614 16.5 6V4.5H19C19.8284 4.5 20.5 5.17157 20.5 6ZM20.5 10.5H3.5V20C3.5 20.8284 4.17157 21.5 5 21.5H19C19.8284 21.5 20.5 20.8284 20.5 20V10.5Z" fill="#172121"/>
</svg>
