<svg width="24" height="24" viewBox="0 0 24 24" fill="none" xmlns="http://www.w3.org/2000/svg">
<path d="M8 7.5C7.72386 7.5 7.5 7.72386 7.5 8C7.5 8.27614 7.72386 8.5 8 8.5H14C14.2761 8.5 14.5 8.27614 14.5 8C14.5 7.72386 14.2761 7.5 14 7.5H8Z" fill="#172121"/>
<path d="M7.5 12C7.5 11.7239 7.72386 11.5 8 11.5H16C16.2761 11.5 16.5 11.7239 16.5 12C16.5 12.2761 16.2761 12.5 16 12.5H8C7.72386 12.5 7.5 12.2761 7.5 12Z" fill="#172121"/>
<path d="M8 15.5C7.72386 15.5 7.5 15.7239 7.5 16C7.5 16.2761 7.72386 16.5 8 16.5H13C13.2761 16.5 13.5 16.2761 13.5 16C13.5 15.7239 13.2761 15.5 13 15.5H8Z" fill="#172121"/>
<path fill-rule="evenodd" clip-rule="evenodd" d="M4.22361 1.55279C4.06861 1.47529 3.88454 1.48357 3.73713 1.57468C3.58973 1.66578 3.5 1.82671 3.5 2V22C3.5 22.1733 3.58973 22.3342 3.73713 22.4253C3.88454 22.5164 4.06861 22.5247 4.22361 22.4472L6 21.559L7.77639 22.4472C7.91716 22.5176 8.08284 22.5176 8.22361 22.4472L10 21.559L11.7764 22.4472C11.9172 22.5176 12.0828 22.5176 12.2236 22.4472L14 21.559L15.7764 22.4472C15.9172 22.5176 16.0828 22.5176 16.2236 22.4472L18 21.559L19.7764 22.4472C19.9314 22.5247 20.1155 22.5164 20.2629 22.4253C20.4103 22.3342 20.5 22.1733 20.5 22V2C20.5 1.82671 20.4103 1.66578 20.2629 1.57468C20.1155 1.48357 19.9314 1.47529 19.7764 1.55279L18 2.44098L16.2236 1.55279C16.0828 1.48241 15.9172 1.48241 15.7764 1.55279L14 2.44098L12.2236 1.55279C12.0828 1.48241 11.9172 1.48241 11.7764 1.55279L10 2.44098L8.22361 1.55279C8.08284 1.48241 7.91716 1.48241 7.77639 1.55279L6 2.44098L4.22361 1.55279ZM4.5 21.191V2.80902L5.77639 3.44721C5.91716 3.5176 6.08284 3.5176 6.22361 3.44721L8 2.55902L9.77639 3.44721C9.91716 3.5176 10.0828 3.5176 10.2236 3.44721L12 2.55902L13.7764 3.44721C13.9172 3.5176 14.0828 3.5176 14.2236 3.44721L16 2.55902L17.7764 3.44721C17.9172 3.5176 18.0828 3.5176 18.2236 3.44721L19.5 2.80902V21.191L18.2236 20.5528C18.0828 20.4824 17.9172 20.4824 17.7764 20.5528L16 21.441L14.2236 20.5528C14.0828 20.4824 13.9172 20.4824 13.7764 20.5528L12 21.441L10.2236 20.5528C10.0828 20.4824 9.91716 20.4824 9.77639 20.5528L8 21.441L6.22361 20.5528C6.08284 20.4824 5.91716 20.4824 5.77639 20.5528L4.5 21.191Z" fill="#172121"/>
</svg>
