<svg width="24" height="24" viewBox="0 0 24 24" fill="none" xmlns="http://www.w3.org/2000/svg">
<path fill-rule="evenodd" clip-rule="evenodd" d="M4 2.5C3.17157 2.5 2.5 3.17157 2.5 4V11C2.5 11.8284 3.17157 12.5 4 12.5H9C9.82843 12.5 10.5 11.8284 10.5 11V4C10.5 3.17157 9.82843 2.5 9 2.5H4ZM3.5 4C3.5 3.72386 3.72386 3.5 4 3.5H9C9.27614 3.5 9.5 3.72386 9.5 4V11C9.5 11.2761 9.27614 11.5 9 11.5H4C3.72386 11.5 3.5 11.2761 3.5 11V4Z" fill="#172121"/>
<path fill-rule="evenodd" clip-rule="evenodd" d="M15 2.5C14.1716 2.5 13.5 3.17157 13.5 4V7C13.5 7.82843 14.1716 8.5 15 8.5H20C20.8284 8.5 21.5 7.82843 21.5 7V4C21.5 3.17157 20.8284 2.5 20 2.5H15ZM14.5 4C14.5 3.72386 14.7239 3.5 15 3.5H20C20.2761 3.5 20.5 3.72386 20.5 4V7C20.5 7.27614 20.2761 7.5 20 7.5H15C14.7239 7.5 14.5 7.27614 14.5 7V4Z" fill="#172121"/>
<path fill-rule="evenodd" clip-rule="evenodd" d="M13.5 13C13.5 12.1716 14.1716 11.5 15 11.5H20C20.8284 11.5 21.5 12.1716 21.5 13V20C21.5 20.8284 20.8284 21.5 20 21.5H15C14.1716 21.5 13.5 20.8284 13.5 20V13ZM15 12.5C14.7239 12.5 14.5 12.7239 14.5 13V20C14.5 20.2761 14.7239 20.5 15 20.5H20C20.2761 20.5 20.5 20.2761 20.5 20V13C20.5 12.7239 20.2761 12.5 20 12.5H15Z" fill="#172121"/>
<path fill-rule="evenodd" clip-rule="evenodd" d="M4 15.5C3.17157 15.5 2.5 16.1716 2.5 17V20C2.5 20.8284 3.17157 21.5 4 21.5H9C9.82843 21.5 10.5 20.8284 10.5 20V17C10.5 16.1716 9.82843 15.5 9 15.5H4ZM3.5 17C3.5 16.7239 3.72386 16.5 4 16.5H9C9.27614 16.5 9.5 16.7239 9.5 17V20C9.5 20.2761 9.27614 20.5 9 20.5H4C3.72386 20.5 3.5 20.2761 3.5 20V17Z" fill="#172121"/>
</svg>
