<svg width="24" height="24" viewBox="0 0 24 24" fill="none" xmlns="http://www.w3.org/2000/svg">
<path fill-rule="evenodd" clip-rule="evenodd" d="M9.0014 21.5L9 21.5L8.9986 21.5H5C4.33696 21.5 3.70107 21.2366 3.23223 20.7678C2.76339 20.2989 2.5 19.663 2.5 19V10.0001C2.49993 9.63649 2.57918 9.27711 2.73223 8.94726C2.88505 8.61792 3.10777 8.32581 3.3849 8.09126L10.3862 2.09112C10.8375 1.70975 11.4092 1.50052 12 1.50052C12.5908 1.50052 13.1625 1.70975 13.6138 2.09112L13.6164 2.09333L20.6138 8.09012L20.6151 8.0913C20.8923 8.32584 21.115 8.61793 21.2678 8.94726C21.4208 9.27711 21.5001 9.63637 21.5 10V19C21.5 19.663 21.2366 20.2989 20.7678 20.7678C20.2989 21.2366 19.663 21.5 19 21.5H15.0014L15 21.5L14.9986 21.5H9.0014ZM11.0317 2.85488L11.0329 2.85388C11.3035 2.62569 11.646 2.50052 12 2.50052C12.354 2.50052 12.6965 2.62569 12.9671 2.85387L12.9683 2.85488L19.9656 8.85165L19.9683 8.85388C20.1349 8.99473 20.2688 9.17024 20.3607 9.36817C20.4525 9.5661 20.5001 9.7818 20.5 10V19C20.5 19.3978 20.342 19.7794 20.0607 20.0607C19.7794 20.342 19.3978 20.5 19 20.5H15.5V13C15.5 12.6022 15.342 12.2206 15.0607 11.9393C14.7794 11.658 14.3978 11.5 14 11.5H10C9.60217 11.5 9.22064 11.658 8.93934 11.9393C8.65804 12.2206 8.5 12.6022 8.5 13V20.5H5C4.60218 20.5 4.22064 20.342 3.93934 20.0607C3.65804 19.7794 3.5 19.3978 3.5 19V9.99988C3.49995 9.78168 3.5475 9.5661 3.63934 9.36817C3.73118 9.17024 3.86511 8.99474 4.03176 8.85389L11.0317 2.85488ZM14.5 20.5H9.5V13C9.5 12.8674 9.55268 12.7402 9.64645 12.6464C9.74022 12.5527 9.86739 12.5 10 12.5H14C14.1326 12.5 14.2598 12.5527 14.3536 12.6464C14.4473 12.7402 14.5 12.8674 14.5 13V20.5Z" fill="#172121"/>
</svg>
