<svg width="80" height="39" viewBox="0 0 80 39" fill="none" xmlns="http://www.w3.org/2000/svg">
<mask id="mask0_9463_21168" style="mask-type:luminance" maskUnits="userSpaceOnUse" x="0" y="0" width="80" height="39">
<path d="M80 0H0V38.4H80V0Z" fill="white"/>
</mask>
<g mask="url(#mask0_9463_21168)">
<path d="M0 11.5159H4.31267V15.6288C6.01976 12.3945 8.98472 11.0298 12.0395 11.0298C17.5561 11.0298 21.5095 15.0492 21.5095 21.3682V37.8575H17.1968V22.0412C17.1968 17.7601 14.7349 15.2923 11.1231 15.0492C8.60736 14.881 4.29469 17.8161 4.29469 22.1908V37.8387H0V11.5159Z" fill="#172121"/>
<path d="M27.1877 0C25.4806 0 24.1868 1.30866 24.1868 3.08471C24.1868 4.95424 25.4986 6.20681 27.1877 6.20681C28.8768 6.20681 30.2964 4.95424 30.2964 3.08471C30.2964 1.30866 28.9487 0 27.1877 0Z" fill="#172121"/>
<path d="M29.4874 11.5352H25.031V37.8766H29.4874V11.5352Z" fill="#172121"/>
<path d="M56.8375 24.7151C57.3226 12.6753 44.1689 6.69285 37.3586 14.6757V13.8531V0.785156H32.9021V37.8578H37.3586V34.7357C44.1689 42.756 57.3406 36.7735 56.8555 24.7151H56.8375ZM44.5104 34.2122C38.1492 34.2122 36.0827 26.8837 37.3226 21.4434C39.443 11.7032 52.9381 13.797 52.0935 24.7151C51.9677 30.9779 49.2723 34.2122 44.4924 34.2122H44.5104Z" fill="#172121"/>
<path d="M69.9374 11.0859C63.6302 11.0859 60.0003 14.8063 59.2455 18.8071L63.3246 20.3775C64.1692 17.6105 66.0381 15.2362 70.1531 15.2737C71.8602 15.2737 75.5259 15.7784 75.5259 18.9941C75.5259 20.2653 74.7712 20.9383 73.3336 21.2187L66.3256 22.3966C61.3839 23.3313 58.4908 25.9673 58.4908 30.4542C58.4908 35.7263 63.2528 38.3623 67.3498 38.3997C69.8476 38.4184 73.136 37.9322 75.5978 34.7914V37.8762H80.0003V20.8823C80.0003 15.4046 76.4243 11.1046 69.9374 11.1046V11.0859ZM75.5259 27.7059C75.4002 31.4638 72.3093 34.455 68.1943 34.455C65.1755 34.455 62.8934 32.8658 62.8934 30.4542C62.8934 28.5847 64.295 26.8273 67.5115 26.0982C67.5115 26.0982 74.0703 24.7521 75.5079 24.5091C75.5079 24.5091 75.5259 26.9208 75.5079 27.7247L75.5259 27.7059Z" fill="#172121"/>
</g>
</svg>
