<svg width="24" height="24" viewBox="0 0 24 24" fill="none" xmlns="http://www.w3.org/2000/svg">
<path d="M19.9509 22.46C19.8709 22.46 19.8009 22.46 19.7209 22.45C16.5709 22.11 13.5109 21.02 10.8609 19.3C8.40088 17.74 6.27088 15.61 4.71088 13.15C2.99088 10.49 1.91088 7.42 1.57088 4.26C1.54088 3.91 1.57088 3.56 1.69088 3.23C1.80088 2.9 1.98088 2.6 2.21088 2.34C2.44088 2.08 2.73088 1.88 3.05088 1.74C3.37088 1.6 3.71088 1.53 4.06088 1.53H7.06088C7.68088 1.53 8.25088 1.74 8.71088 2.13C9.17088 2.53 9.47088 3.07 9.56088 3.68C9.68088 4.61 9.91088 5.51 10.2309 6.38C10.4009 6.83 10.4309 7.31 10.3309 7.78C10.2309 8.25 10.0009 8.68 9.66088 9.02L8.66088 10.02C9.97088 12.19 11.7809 14.01 13.9509 15.31L14.9509 14.31C15.2909 13.97 15.7209 13.74 16.1909 13.64C16.6609 13.54 17.1409 13.58 17.5909 13.75C18.4609 14.07 19.3709 14.3 20.2909 14.42C20.9009 14.51 21.4609 14.81 21.8509 15.28C22.2509 15.75 22.4609 16.34 22.4409 16.95V19.95C22.4409 20.3 22.3709 20.64 22.2309 20.96C22.0909 21.28 21.8909 21.56 21.6309 21.8C21.3709 22.04 21.0709 22.21 20.7409 22.32C20.4809 22.41 20.2109 22.45 19.9409 22.45L19.9509 22.46ZM7.08088 2.53H4.06088C3.85088 2.53 3.65088 2.57 3.46088 2.66C3.27088 2.74 3.10088 2.87 2.96088 3.02C2.82088 3.17 2.71088 3.35 2.65088 3.55C2.58088 3.75 2.56088 3.95 2.58088 4.16C2.90088 7.15 3.93088 10.07 5.57088 12.6C7.06088 14.94 9.08088 16.96 11.4209 18.45C13.9409 20.09 16.8509 21.12 19.8409 21.45C20.0409 21.47 20.2509 21.45 20.4509 21.38C20.6509 21.31 20.8309 21.21 20.9909 21.06C21.1409 20.92 21.2609 20.75 21.3509 20.56C21.4309 20.37 21.4809 20.16 21.4809 19.95V16.95C21.4809 16.57 21.3609 16.21 21.1209 15.93C20.8809 15.65 20.5509 15.47 20.1909 15.41C19.2009 15.28 18.2209 15.04 17.2709 14.68C17.0009 14.58 16.7109 14.56 16.4309 14.62C16.1509 14.68 15.8909 14.82 15.6909 15.02L14.4209 16.29C14.2609 16.45 14.0109 16.48 13.8209 16.37C11.2409 14.9 9.10088 12.76 7.63088 10.18C7.52088 9.98 7.55088 9.74 7.71088 9.58L8.98088 8.31C9.18088 8.11 9.32088 7.85 9.38088 7.57C9.44088 7.29 9.42088 7 9.32088 6.73C8.97088 5.79 8.72088 4.81 8.59088 3.81C8.54088 3.45 8.36088 3.12 8.08088 2.89C7.81088 2.66 7.46088 2.53 7.10088 2.53H7.08088Z" fill="#172121"/>
</svg>
