<svg width="24" height="24" viewBox="0 0 24 24" fill="none" xmlns="http://www.w3.org/2000/svg">
<path d="M12 1.5C12.2761 1.5 12.5 1.72386 12.5 2V4C12.5 4.27614 12.2761 4.5 12 4.5C11.7239 4.5 11.5 4.27614 11.5 4V2C11.5 1.72386 11.7239 1.5 12 1.5Z" fill="#172121"/>
<path fill-rule="evenodd" clip-rule="evenodd" d="M7.5 12C7.5 9.51472 9.51472 7.5 12 7.5C14.4853 7.5 16.5 9.51472 16.5 12C16.5 14.4853 14.4853 16.5 12 16.5C9.51472 16.5 7.5 14.4853 7.5 12ZM12 8.5C10.067 8.5 8.5 10.067 8.5 12C8.5 13.933 10.067 15.5 12 15.5C13.933 15.5 15.5 13.933 15.5 12C15.5 10.067 13.933 8.5 12 8.5Z" fill="#172121"/>
<path d="M12.5 20C12.5 19.7239 12.2761 19.5 12 19.5C11.7239 19.5 11.5 19.7239 11.5 20V22C11.5 22.2761 11.7239 22.5 12 22.5C12.2761 22.5 12.5 22.2761 12.5 22V20Z" fill="#172121"/>
<path d="M4.57638 4.57645C4.77164 4.38118 5.08822 4.38118 5.28348 4.57645L6.69349 5.98645C6.88875 6.18171 6.88875 6.49829 6.69349 6.69355C6.49822 6.88882 6.18164 6.88882 5.98638 6.69355L4.57638 5.28355C4.38112 5.08829 4.38112 4.77171 4.57638 4.57645Z" fill="#172121"/>
<path d="M18.0135 17.3064C17.8182 17.1112 17.5016 17.1112 17.3064 17.3064C17.1111 17.5017 17.1111 17.8183 17.3064 18.0136L18.7164 19.4236C18.9116 19.6188 19.2282 19.6188 19.4235 19.4236C19.6187 19.2283 19.6187 18.9117 19.4235 18.7164L18.0135 17.3064Z" fill="#172121"/>
<path d="M1.5 12C1.5 11.7239 1.72386 11.5 2 11.5H4C4.27614 11.5 4.5 11.7239 4.5 12C4.5 12.2761 4.27614 12.5 4 12.5H2C1.72386 12.5 1.5 12.2761 1.5 12Z" fill="#172121"/>
<path d="M20 11.5C19.7239 11.5 19.5 11.7239 19.5 12C19.5 12.2761 19.7239 12.5 20 12.5H22C22.2761 12.5 22.5 12.2761 22.5 12C22.5 11.7239 22.2761 11.5 22 11.5H20Z" fill="#172121"/>
<path d="M6.69349 17.3064C6.88875 17.5017 6.88875 17.8183 6.69349 18.0136L5.28348 19.4236C5.08822 19.6188 4.77164 19.6188 4.57638 19.4236C4.38112 19.2283 4.38112 18.9117 4.57638 18.7164L5.98638 17.3064C6.18164 17.1112 6.49822 17.1112 6.69349 17.3064Z" fill="#172121"/>
<path d="M19.4235 5.28355C19.6187 5.08829 19.6187 4.77171 19.4235 4.57645C19.2282 4.38118 18.9116 4.38118 18.7164 4.57645L17.3064 5.98645C17.1111 6.18171 17.1111 6.49829 17.3064 6.69355C17.5016 6.88882 17.8182 6.88882 18.0135 6.69355L19.4235 5.28355Z" fill="#172121"/>
</svg>
