<svg width="24" height="24" viewBox="0 0 24 24" fill="none" xmlns="http://www.w3.org/2000/svg">
<path d="M11.99 21.9931C11 21.9931 10.03 21.8031 9.11999 21.4231C8.20999 21.0431 7.38999 20.4931 6.68999 19.7931C5.98999 19.0931 5.43999 18.2731 5.05999 17.3631C4.67999 16.4531 4.48999 15.4831 4.48999 14.4931C4.48999 13.3031 4.91999 12.0331 5.59999 11.1831C5.72999 11.0131 5.95999 10.9531 6.15999 11.0231C6.35999 11.0931 6.48999 11.2831 6.48999 11.4931C6.48999 12.0231 6.69999 12.5331 7.07999 12.9031C7.83999 13.6631 9.14999 13.6631 9.90999 12.9031C10.29 12.5231 10.5 12.0231 10.5 11.4931C10.5 10.4931 10.22 9.97314 9.82999 9.25314C9.73999 9.08314 9.64999 8.91314 9.54999 8.72314C8.43999 6.50314 9.12999 4.34314 11.67 2.12314C11.8 2.00314 11.99 1.97314 12.16 2.02314C12.33 2.08314 12.45 2.22314 12.49 2.40314C12.96 4.75314 14.39 7.07314 16.31 8.61314C18.39 10.2831 19.5 12.3231 19.5 14.5031C19.5 15.4931 19.31 16.4631 18.93 17.3731C18.55 18.2931 18 19.1031 17.3 19.8031C16.6 20.5031 15.78 21.0531 14.87 21.4331C13.96 21.8131 12.99 22.0031 12 22.0031L11.99 21.9931ZM5.80999 12.8331C5.60999 13.3531 5.48999 13.9431 5.48999 14.4931C5.48999 15.3531 5.65999 16.1831 5.97999 16.9831C6.30999 17.7731 6.77999 18.4831 7.38999 19.0931C7.99999 19.7031 8.70999 20.1731 9.49999 20.5031C11.08 21.1631 12.89 21.1631 14.47 20.5031C15.26 20.1731 15.97 19.7031 16.58 19.0931C17.19 18.4831 17.66 17.7731 17.99 16.9831C18.32 16.1931 18.49 15.3531 18.49 14.4931C18.49 12.6231 17.52 10.8531 15.68 9.38314C13.81 7.88314 12.37 5.71314 11.71 3.44314C10.02 5.13314 9.62999 6.64314 10.44 8.27314C10.53 8.45314 10.62 8.62314 10.71 8.78314C11.12 9.53314 11.5 10.2431 11.5 11.5031C11.5 12.3031 11.19 13.0531 10.62 13.6231C9.48999 14.7531 7.50999 14.7531 6.37999 13.6231C6.14999 13.3931 5.95999 13.1331 5.81999 12.8431L5.80999 12.8331Z" fill="#172121"/>
</svg>
