<svg width="24" height="24" viewBox="0 0 24 24" fill="none" xmlns="http://www.w3.org/2000/svg">
<path d="M10.5185 22.5053C10.3585 22.5053 10.1885 22.4653 10.0485 22.3853C9.8485 22.2753 9.6885 22.1053 9.5985 21.9053C9.5085 21.6953 9.4885 21.4553 9.5485 21.2453L11.4785 15.2053C11.5185 15.1053 11.5285 15.0253 11.5185 14.9453C11.5085 14.8653 11.4785 14.7853 11.4285 14.7253C11.3785 14.6553 11.3185 14.6053 11.2485 14.5653C11.1785 14.5253 11.1085 14.5053 11.0185 14.5053H4.0085C3.7385 14.5053 3.4485 14.4253 3.2085 14.2753C2.9685 14.1253 2.7785 13.9053 2.6485 13.6553C2.5285 13.4053 2.4785 13.1153 2.5085 12.8353C2.5385 12.5553 2.6585 12.2853 2.8385 12.0653L12.7685 1.82533C12.8985 1.67533 13.0985 1.55533 13.3285 1.51533C13.5585 1.47533 13.7885 1.51533 13.9785 1.61533C14.1785 1.71533 14.3385 1.89533 14.4285 2.10533C14.5185 2.30533 14.5285 2.54533 14.4785 2.75533L12.5485 8.79533C12.5085 8.89533 12.4985 8.97533 12.5085 9.05533C12.5185 9.13533 12.5485 9.21533 12.5985 9.27533C12.6485 9.34533 12.7085 9.39533 12.7785 9.43533C12.8485 9.47533 12.8985 9.47533 13.0085 9.49533H20.0185C20.2985 9.49533 20.5785 9.57533 20.8185 9.72533C21.0585 9.87533 21.2485 10.0953 21.3785 10.3453C21.4985 10.5953 21.5485 10.8853 21.5085 11.1653C21.4785 11.4453 21.3685 11.7153 21.1885 11.9353L11.2585 22.1653C11.1285 22.3153 10.9285 22.4353 10.6985 22.4753C10.6385 22.4853 10.5785 22.4953 10.5185 22.4953V22.5053ZM11.0185 13.5053C11.2585 13.5053 11.4985 13.5653 11.7085 13.6753C11.9185 13.7853 12.1085 13.9453 12.2485 14.1453C12.3885 14.3453 12.4785 14.5753 12.5085 14.8153C12.5385 15.0553 12.5085 15.3053 12.4285 15.5253L10.5185 21.5253L20.4485 11.2853C20.4485 11.2853 20.5185 11.1553 20.5285 11.0653C20.5385 10.9653 20.5285 10.8753 20.4885 10.7853C20.4485 10.6953 20.3785 10.6253 20.2985 10.5753C20.2185 10.5253 20.1085 10.5153 20.0285 10.4953H13.0285C12.7785 10.5053 12.5485 10.4353 12.3285 10.3253C12.1085 10.2153 11.9285 10.0453 11.7885 9.85533C11.6485 9.65533 11.5585 9.42533 11.5285 9.18533C11.4985 8.94533 11.5285 8.69533 11.6085 8.47533L13.5185 2.47533L3.5885 12.7253C3.5885 12.7253 3.5185 12.8553 3.5085 12.9453C3.4985 13.0353 3.5085 13.1353 3.5585 13.2153C3.5985 13.3053 3.6585 13.3753 3.7485 13.4253C3.8285 13.4753 3.8685 13.5153 4.0185 13.5053H11.0285H11.0185Z" fill="#172121"/>
</svg>
