<svg width="24" height="24" viewBox="0 0 24 24" fill="none" xmlns="http://www.w3.org/2000/svg">
<path fill-rule="evenodd" clip-rule="evenodd" d="M17.0687 3.22915C16.2426 2.98293 15.3667 2.93333 14.5118 3.08909C13.4119 3.28949 12.3992 3.82035 11.6086 4.61092C10.818 5.40148 10.2872 6.4142 10.0868 7.51412C9.88636 8.61404 10.0259 9.74892 10.4869 10.7675C10.5727 10.9571 10.532 11.18 10.3849 11.3272L3.47487 18.2372C3.17082 18.5413 3 18.9536 3 19.3836C3 19.8136 3.17082 20.226 3.47487 20.5301C3.77893 20.8341 4.19132 21.005 4.62132 21.005C5.05132 21.005 5.46371 20.8341 5.76777 20.5301L12.6778 13.6201C12.8249 13.4729 13.0479 13.4323 13.2375 13.5181C14.256 13.979 15.3909 14.1186 16.4908 13.9182C17.5908 13.7178 18.6035 13.1869 19.394 12.3964C20.1846 11.6058 20.7155 10.5931 20.9159 9.49316C21.0716 8.63831 21.022 7.76234 20.7758 6.93626L17.5513 10.1607C17.2709 10.4356 16.8939 10.5895 16.5013 10.5895C16.1087 10.5895 15.7317 10.4356 15.4513 10.1607L15.4477 10.1572L13.8442 8.55366C13.5694 8.27327 13.4155 7.89627 13.4155 7.50364C13.4155 7.11101 13.5694 6.73404 13.8442 6.45364L13.8477 6.45007L17.0687 3.22915ZM14.3325 2.10528C15.6325 1.86844 16.9737 2.03337 18.1775 2.57811C18.327 2.64578 18.4338 2.78254 18.4632 2.94402C18.4926 3.1055 18.4409 3.27113 18.3249 3.3872L14.5569 7.15512C14.4662 7.24843 14.4155 7.37346 14.4155 7.50364C14.4155 7.63383 14.4662 7.75885 14.5569 7.85216L16.1528 9.44802C16.2461 9.53872 16.3711 9.5895 16.5013 9.5895C16.6315 9.5895 16.7565 9.53872 16.8498 9.44802L16.8513 9.44657L20.6178 5.68009C20.7338 5.56403 20.8995 5.51232 21.0609 5.54174C21.2224 5.57116 21.3592 5.67797 21.4268 5.82751C21.9716 7.03129 22.1365 8.37251 21.8997 9.67241C21.6628 10.9723 21.0355 12.1692 20.1012 13.1035C19.1668 14.0378 17.97 14.6652 16.6701 14.902C15.4851 15.1179 14.2657 14.9999 13.1474 14.5647L6.47487 21.2372C5.98328 21.7288 5.31654 22.005 4.62132 22.005C3.9261 22.005 3.25936 21.7288 2.76777 21.2372C2.27617 20.7456 2 20.0789 2 19.3836C2 18.6884 2.27617 18.0217 2.76777 17.5301L9.44029 10.8576C9.00504 9.73928 8.88704 8.51991 9.10296 7.33487C9.33981 6.03497 9.96718 4.83811 10.9015 3.90381C11.8358 2.96951 13.0326 2.34213 14.3325 2.10528Z" fill="#172121"/>
</svg>
