<svg width="24" height="24" viewBox="0 0 24 24" fill="none" xmlns="http://www.w3.org/2000/svg">
<path fill-rule="evenodd" clip-rule="evenodd" d="M12 1.5C10.2761 1.5 8.6228 2.18482 7.40381 3.40381C6.18482 4.62279 5.5 6.27609 5.5 8C5.5 10.1971 5.15557 11.6087 4.67653 12.6228C4.19694 13.6381 3.56687 14.2926 2.90286 14.9781L2.89264 14.989C2.69668 15.2038 2.56737 15.4709 2.52042 15.7578C2.47347 16.0447 2.51092 16.3391 2.6282 16.6051C2.74548 16.8711 2.93754 17.0973 3.18102 17.2562C3.4245 17.4151 3.70927 17.4998 4 17.5H20C20.2906 17.5001 20.575 17.4157 20.8186 17.2572C21.0623 17.0986 21.2546 16.8726 21.3722 16.6068C21.4897 16.3409 21.5276 16.0466 21.481 15.7597C21.4344 15.4727 21.3055 15.2055 21.1098 14.9905L21.0989 14.9789C20.4335 14.293 19.803 13.6382 19.3233 12.6229C18.8442 11.6088 18.5 10.1972 18.5 8C18.5 6.27609 17.8152 4.62279 16.5962 3.40381C15.3772 2.18482 13.7239 1.5 12 1.5ZM8.11092 4.11091C9.14237 3.07946 10.5413 2.5 12 2.5C13.4587 2.5 14.8576 3.07946 15.8891 4.11091C16.9205 5.14236 17.5 6.54131 17.5 8C17.5 10.3018 17.8608 11.8682 18.4192 13.0501C18.9742 14.2249 19.7091 14.9824 20.3711 15.6648L20.3746 15.6684C20.4373 15.7392 20.4787 15.8264 20.4939 15.9199C20.5094 16.0155 20.4968 16.1136 20.4576 16.2023C20.4184 16.2909 20.3543 16.3662 20.2731 16.4191C20.1919 16.4719 20.0969 16.5 20 16.5H4.00037C3.90346 16.4999 3.80866 16.4717 3.7275 16.4187C3.64633 16.3658 3.58231 16.2904 3.54322 16.2017C3.50413 16.113 3.49165 16.0149 3.5073 15.9193C3.52261 15.8257 3.56423 15.7384 3.62723 15.6676L3.63386 15.6607C4.29356 14.9797 5.02663 14.2229 5.58072 13.0499C6.13893 11.8683 6.5 10.3019 6.5 8C6.5 6.54131 7.07947 5.14236 8.11092 4.11091Z" fill="#172121"/>
<path d="M10.7009 20.75C10.5628 20.5108 10.257 20.4289 10.0179 20.567C9.77874 20.7051 9.69682 21.0109 9.83491 21.25C10.0543 21.63 10.3699 21.9456 10.75 22.165C11.13 22.3844 11.5611 22.4999 11.9999 22.4999C12.4387 22.4999 12.8698 22.3844 13.2499 22.165C13.6299 21.9456 13.9455 21.63 14.1649 21.25C14.303 21.0109 14.2211 20.7051 13.9819 20.567C13.7428 20.4289 13.437 20.5108 13.2989 20.75C13.1672 20.978 12.9779 21.1673 12.7499 21.299C12.5219 21.4306 12.2632 21.4999 11.9999 21.4999C11.7366 21.4999 11.478 21.4306 11.2499 21.299C11.0219 21.1673 10.8326 20.978 10.7009 20.75Z" fill="#172121"/>
</svg>
