<svg width="24" height="24" viewBox="0 0 24 24" fill="none" xmlns="http://www.w3.org/2000/svg">
<path fill-rule="evenodd" clip-rule="evenodd" d="M12 2.5C9.51472 2.5 7.5 4.51472 7.5 7C7.5 9.48528 9.51472 11.5 12 11.5C14.4853 11.5 16.5 9.48528 16.5 7C16.5 4.51472 14.4853 2.5 12 2.5ZM8.5 7C8.5 5.067 10.067 3.5 12 3.5C13.933 3.5 15.5 5.067 15.5 7C15.5 8.933 13.933 10.5 12 10.5C10.067 10.5 8.5 8.933 8.5 7Z" fill="#172121"/>
<path d="M9 14.5C7.80653 14.5 6.66193 14.9741 5.81802 15.818C4.97411 16.6619 4.5 17.8065 4.5 19V21C4.5 21.2761 4.72386 21.5 5 21.5C5.27614 21.5 5.5 21.2761 5.5 21V19C5.5 18.0717 5.86875 17.1815 6.52513 16.5251C7.1815 15.8687 8.07174 15.5 9 15.5H15C15.9283 15.5 16.8185 15.8687 17.4749 16.5251C18.1313 17.1815 18.5 18.0717 18.5 19V21C18.5 21.2761 18.7239 21.5 19 21.5C19.2761 21.5 19.5 21.2761 19.5 21V19C19.5 17.8065 19.0259 16.6619 18.182 15.818C17.3381 14.9741 16.1935 14.5 15 14.5H9Z" fill="#172121"/>
</svg>
