<svg width="24" height="24" viewBox="0 0 24 24" fill="none" xmlns="http://www.w3.org/2000/svg">
<path d="M12.1914 2.53794C12.2504 2.56234 12.3056 2.59851 12.3536 2.64645L17.3536 7.64645C17.5488 7.84171 17.5488 8.15829 17.3536 8.35355C17.1583 8.54882 16.8417 8.54882 16.6464 8.35355L12.5 4.20711V15C12.5 15.2761 12.2761 15.5 12 15.5C11.7239 15.5 11.5 15.2761 11.5 15V4.20711L7.35355 8.35355C7.15829 8.54882 6.84171 8.54882 6.64645 8.35355C6.45118 8.15829 6.45118 7.84171 6.64645 7.64645L11.6464 2.64645C11.6944 2.59851 11.7496 2.56234 11.8086 2.53794C11.8676 2.51349 11.9322 2.5 12 2.5C12.0678 2.5 12.1324 2.51349 12.1914 2.53794Z" fill="#172121"/>
<path d="M3 14.5C3.27614 14.5 3.5 14.7239 3.5 15V19C3.5 19.3978 3.65804 19.7794 3.93934 20.0607C4.22064 20.342 4.60218 20.5 5 20.5H19C19.3978 20.5 19.7794 20.342 20.0607 20.0607C20.342 19.7794 20.5 19.3978 20.5 19V15C20.5 14.7239 20.7239 14.5 21 14.5C21.2761 14.5 21.5 14.7239 21.5 15V19C21.5 19.663 21.2366 20.2989 20.7678 20.7678C20.2989 21.2366 19.663 21.5 19 21.5H5C4.33696 21.5 3.70107 21.2366 3.23223 20.7678C2.76339 20.2989 2.5 19.663 2.5 19V15C2.5 14.7239 2.72386 14.5 3 14.5Z" fill="#172121"/>
</svg>
