<svg width="24" height="24" viewBox="0 0 24 24" fill="none" xmlns="http://www.w3.org/2000/svg">
<path d="M12 8.5C12.2761 8.5 12.5 8.72386 12.5 9V13C12.5 13.2761 12.2761 13.5 12 13.5C11.7239 13.5 11.5 13.2761 11.5 13V9C11.5 8.72386 11.7239 8.5 12 8.5Z" fill="#172121"/>
<path d="M12 16.5C11.7239 16.5 11.5 16.7239 11.5 17C11.5 17.2761 11.7239 17.5 12 17.5H12.01C12.2861 17.5 12.51 17.2761 12.51 17C12.51 16.7239 12.2861 16.5 12.01 16.5H12Z" fill="#172121"/>
<path fill-rule="evenodd" clip-rule="evenodd" d="M10.7313 2.82606C11.1134 2.60341 11.5477 2.48611 11.9899 2.48611C12.4322 2.48611 12.8665 2.60341 13.2486 2.82606C13.6305 3.04859 13.9465 3.36839 14.1646 3.75286L22.1629 17.75L22.1637 17.7513C22.3825 18.1308 22.4978 18.5612 22.4979 18.9994C22.498 19.438 22.3827 19.8689 22.1636 20.2489C21.9445 20.6289 21.6292 20.9445 21.2495 21.1641C20.8699 21.3837 20.4391 21.4996 20.0004 21.5H4.00196C3.56207 21.5035 3.12902 21.3909 2.74655 21.1735C2.36336 20.9557 2.04457 20.6405 1.82249 20.2598C1.6004 19.879 1.48292 19.4464 1.48194 19.0056C1.48096 18.5653 1.59631 18.1325 1.8163 17.7511L1.81693 17.75L9.81493 3.75348C10.033 3.36911 10.3495 3.04855 10.7313 2.82606ZM11.9899 3.48611C11.7246 3.48611 11.464 3.55649 11.2347 3.69008C11.0055 3.82367 10.8158 4.01568 10.6849 4.24653L10.6841 4.24807L2.68405 18.2481L2.68293 18.25C2.55069 18.479 2.48135 18.739 2.48194 19.0034C2.48252 19.2679 2.55301 19.5275 2.68627 19.7559C2.81952 19.9843 3.01079 20.1735 3.2407 20.3041C3.47061 20.4348 3.73099 20.5024 3.99543 20.5L3.99993 20.5L19.9994 20.5C20.2626 20.4997 20.5211 20.4302 20.7489 20.2985C20.9767 20.1667 21.1658 19.9773 21.2973 19.7493C21.4288 19.5214 21.4979 19.2628 21.4979 18.9996C21.4978 18.7364 21.4285 18.4779 21.2969 18.25L21.2958 18.2481L13.2958 4.24807L13.2949 4.24653C13.1641 4.01568 12.9744 3.82367 12.7451 3.69008C12.5159 3.55649 12.2553 3.48611 11.9899 3.48611Z" fill="#172121"/>
</svg>
